<svg width="80" height="80" viewBox="0 0 80 80" fill="none" xmlns="http://www.w3.org/2000/svg">
<path d="M73.3331 45.3333C74.0705 45.3333 74.6664 44.7359 74.6664 44V38.6667C74.6664 37.9308 74.0705 37.3334 73.3331 37.3334H66.6664V36C66.6664 35.2641 66.0705 34.6667 65.3331 34.6667C64.5958 34.6667 63.9998 35.2641 63.9998 36V37.3333H26.6666V36C26.6666 35.2641 26.0692 34.6667 25.3333 34.6667C24.5973 34.6667 24 35.2641 24 36V37.3333H17.3333C16.5973 37.3333 16 37.9306 16 38.6666V44C16 44.7359 16.5973 45.3333 17.3333 45.3333H25.3333H65.3333H73.3331ZM18.6666 42.6667V40H71.9998V42.6667H18.6666Z" fill="#D4C17F"/>
<path d="M47.9998 29.3333C45.8439 29.3333 44.4505 30.9719 44.2984 31.16C43.837 31.7267 43.9225 32.5547 44.4864 33.0214C45.0517 33.4894 45.8878 33.4081 46.3611 32.8508C46.3664 32.8414 47.0891 32.0002 47.9997 32.0002C48.9103 32.0002 49.6317 32.8416 49.6317 32.8416C49.8958 33.1656 50.2797 33.3336 50.6676 33.3336C50.9636 33.3336 51.2597 33.2362 51.5076 33.035C52.0797 32.5709 52.165 31.7309 51.7009 31.1603C51.5492 30.972 50.1558 29.3333 47.9998 29.3333Z" fill="#D4C17F"/>
<path d="M73.3331 56C74.0705 56 74.6664 55.4027 74.6664 54.6667V49.3334C74.6664 48.5975 74.0705 48.0002 73.3331 48.0002H66.6664V46.6669C66.6664 45.9309 66.0705 45.3336 65.3331 45.3336C64.5958 45.3336 63.9998 45.9309 63.9998 46.6669V48.0002H26.6666V46.6669C26.6666 45.9309 26.0692 45.3336 25.3333 45.3336C24.5973 45.3336 24 45.9309 24 46.6669V48.0002H17.3333C16.5973 48.0002 16 48.5975 16 49.3334V54.6667C16 55.4027 16.5973 56 17.3333 56H25.3333H65.3333H73.3331ZM18.6666 53.3333V50.6666H71.9998V53.3333H18.6666Z" fill="#D4C17F"/>
<path d="M54.9652 26.1733C55.2292 26.4986 55.6131 26.6666 56.0011 26.6666C56.297 26.6666 56.5931 26.5692 56.8411 26.368C57.4131 25.9039 57.4984 25.0639 57.0344 24.4933C56.8823 24.3053 55.4891 22.6666 53.333 22.6666C51.1769 22.6666 49.7836 24.3052 49.6316 24.4933C49.1701 25.06 49.2556 25.888 49.8195 26.3547C50.3848 26.8241 51.2209 26.7414 51.6928 26.1841C51.6995 26.1747 52.4222 25.3334 53.3328 25.3334C54.2439 25.3333 54.9652 26.1733 54.9652 26.1733Z" fill="#D4C17F"/>
<path d="M1.33992 17.4667C1.40789 18.1481 1.98133 18.6667 2.66664 18.6667H10.6666C11.352 18.6667 11.9252 18.1481 11.9934 17.4667L13.3266 4.13344C13.364 3.7575 13.2413 3.38547 12.988 3.10547C12.736 2.82672 12.3774 2.66688 12.0001 2.66688H7.99992V1.33328C7.99992 0.597344 7.40258 0 6.66664 0C5.9307 0 5.33336 0.597344 5.33336 1.33328V2.66656H1.33336C0.956017 2.66656 0.597423 2.82656 0.345392 3.10516C0.0921105 3.38516 -0.0305457 3.75719 0.00679806 4.13312L1.33992 17.4667ZM10.5266 5.33328L9.45992 16H3.8732L2.80649 5.33328H10.5266Z" fill="#D4C17F"/>
<path d="M37.3331 30.6667C37.3331 32.1573 37.9425 33.5441 39.049 34.5694C39.305 34.8067 39.6304 34.9253 39.9558 34.9253C40.3131 34.9253 40.6704 34.7813 40.9331 34.4986C41.4331 33.9586 41.4025 33.1145 40.8625 32.6133C40.3051 32.0986 39.9998 31.4066 39.9998 30.6666C39.9998 29.5625 40.7025 28.5613 41.7504 28.1759C42.1851 28.0159 42.5051 27.6413 42.5958 27.1866C42.6878 26.7319 42.5343 26.2625 42.1958 25.9466C41.6384 25.4319 41.3331 24.7398 41.3331 23.9998C41.3331 22.6131 42.4251 21.4531 43.8184 21.3572C44.3304 21.3225 44.7758 20.9986 44.9664 20.5225C45.1558 20.0466 45.057 19.5039 44.7104 19.1266C44.2519 18.6266 43.9998 17.9892 43.9998 17.3333C43.9998 15.9466 45.0919 14.7866 46.4851 14.6906C46.9972 14.6559 47.4425 14.332 47.6331 13.8559C47.8225 13.38 47.7237 12.8373 47.3772 12.46C46.9198 11.96 46.6665 11.3227 46.6665 10.6667C46.6665 9.47469 47.4786 8.42266 48.6398 8.10813C49.0092 8.00813 49.3158 7.75609 49.4851 7.41609C49.6558 7.07609 49.6719 6.6775 49.5292 6.32547C49.3998 5.99875 49.3333 5.66547 49.3333 5.33344C49.3333 3.86281 50.5292 2.66672 52 2.66672C53.4706 2.66672 54.6667 3.86266 54.6667 5.33344C54.6667 5.66547 54.6 5.99875 54.4708 6.32547C54.3281 6.6775 54.344 7.07609 54.5148 7.41609C54.6842 7.75609 54.9908 8.00813 55.3601 8.10813C56.5215 8.42281 57.3334 9.47484 57.3334 10.6667C57.3334 11.3227 57.0801 11.96 56.6228 12.46C56.2761 12.8373 56.1775 13.38 56.3669 13.8559C56.5575 14.3319 57.0028 14.6559 57.5148 14.6906C58.9081 14.7866 60.0001 15.9466 60.0001 17.3333C60.0001 17.9892 59.7469 18.6266 59.2895 19.1266C58.9428 19.5039 58.8442 20.0466 59.0336 20.5225C59.2242 20.9984 59.6695 21.3225 60.1815 21.3572C61.5748 21.4531 62.6669 22.6131 62.6669 23.9998C62.6669 24.7398 62.3615 25.4319 61.8042 25.9466C61.4656 26.2625 61.3122 26.7319 61.4042 27.1866C61.4948 27.6413 61.8148 28.0159 62.2509 28.1759C63.2976 28.5613 64.0003 29.5627 64.0003 30.6666C64.0003 31.4025 64.5962 31.9998 65.3336 31.9998C66.0709 31.9998 66.6669 31.4025 66.6669 30.6666C66.6669 29.0425 65.9136 27.5319 64.6883 26.5372C65.1097 25.7678 65.3336 24.9025 65.3336 23.9998C65.3336 21.9145 64.1069 20.0825 62.3176 19.2158C62.547 18.6184 62.667 17.9811 62.667 17.3331C62.667 15.2478 61.4403 13.4158 59.6511 12.5491C59.8804 11.9517 60.0004 11.3144 60.0004 10.6664C60.0004 8.72234 58.9311 6.96641 57.2858 6.03703C57.3178 5.80375 57.3337 5.56906 57.3337 5.33297C57.3331 2.39203 54.9412 0 51.9998 0C49.0584 0 46.6665 2.39203 46.6665 5.33328C46.6665 5.56922 46.6825 5.80391 46.7145 6.03734C45.0692 6.96672 43.9998 8.72266 43.9998 10.6667C43.9998 11.3147 44.1198 11.952 44.3492 12.5494C42.5598 13.4161 41.3333 15.248 41.3333 17.3334C41.3333 17.9814 41.4533 18.6188 41.6826 19.2161C39.8933 20.0828 38.6667 21.9147 38.6667 24.0002C38.6667 24.9028 38.8908 25.7681 39.312 26.5375C38.0865 27.532 37.3331 29.0427 37.3331 30.6667Z" fill="#D4C17F"/>
<path d="M50.1586 18.5614C50.8359 18.8414 51.6159 18.5187 51.9 17.8414C51.9253 17.7773 51.9626 17.7067 52 17.6373C52.0373 17.7041 52.072 17.7733 52.0973 17.8359C52.308 18.3533 52.8067 18.668 53.3333 18.668C53.5012 18.668 53.6706 18.6359 53.8345 18.568C54.5172 18.292 54.8466 17.5133 54.5692 16.832C54.4212 16.4706 53.608 14.6667 51.9998 14.6667C50.3919 14.6667 49.5784 16.4708 49.4305 16.832C49.1545 17.5106 49.4812 18.2814 50.1586 18.5614Z" fill="#D4C17F"/>
<path d="M78.6666 77.3333H57.3331C56.5958 77.3333 55.9998 77.9306 55.9998 78.6666C55.9998 79.4025 56.5958 79.9998 57.3331 79.9998H78.6664C79.4038 79.9998 79.9997 79.4025 79.9997 78.6666C79.9997 77.9306 79.4039 77.3333 78.6666 77.3333Z" fill="#D4C17F"/>
<path d="M78.6666 58.6667H66.6666V57.3334C66.6666 56.5975 66.0706 56.0002 65.3333 56.0002C64.5959 56.0002 64 56.5975 64 57.3334V58.6667H26.6666V57.3334C26.6666 56.5975 26.0692 56.0002 25.3333 56.0002C24.5973 56.0002 24 56.5975 24 57.3334V58.6667H11.9998C11.2639 58.6667 10.6666 59.2641 10.6666 60V65.3333C10.6666 66.0692 11.2639 66.6666 11.9998 66.6666H15.9998V73.3333C15.9998 74.0692 16.5972 74.6666 17.3331 74.6666C18.0691 74.6666 18.6664 74.0692 18.6664 73.3333V66.6666H71.9999V73.3333C71.9999 74.0692 72.5958 74.6666 73.3331 74.6666C74.0705 74.6666 74.6664 74.0692 74.6664 73.3333V66.6666H78.6664C79.4038 66.6666 79.9997 66.0692 79.9997 65.3333V60C79.9999 59.2641 79.4039 58.6667 78.6666 58.6667ZM77.3331 64H13.3331V61.3333H77.3331V64Z" fill="#D4C17F"/>
<path d="M19.9998 77.3333H7.99984V22.6667C7.99984 21.9308 7.4025 21.3334 6.66656 21.3334C5.93063 21.3334 5.33328 21.9308 5.33328 22.6667V77.3334H1.33328C0.597344 77.3334 0 77.9308 0 78.6667C0 79.4027 0.597187 80 1.33313 80H19.9998C20.7358 80 21.3331 79.4027 21.3331 78.6667C21.3331 77.9308 20.7358 77.3333 19.9998 77.3333Z" fill="#D4C17F"/>
<path d="M51.9998 77.3333H49.3331C48.5958 77.3333 47.9998 77.9306 47.9998 78.6666C47.9998 79.4025 48.5958 79.9998 49.3331 79.9998H51.9998C52.7372 79.9998 53.3331 79.4025 53.3331 78.6666C53.3331 77.9306 52.7372 77.3333 51.9998 77.3333Z" fill="#D4C17F"/>
<path d="M41.3331 77.3333H27.9998C27.2639 77.3333 26.6666 77.9306 26.6666 78.6666C26.6666 79.4025 27.2639 80 27.9998 80H41.3331C42.0705 80 42.6664 79.4027 42.6664 78.6667C42.6664 77.9308 42.0705 77.3333 41.3331 77.3333Z" fill="#D4C17F"/>
</svg>
